<svg width="30" height="29" viewBox="0 0 30 29" fill="none" xmlns="http://www.w3.org/2000/svg">
<path d="M26.7241 12.1336H25.7508V12.0834H14.8758V16.9167H21.7047C20.7084 19.7304 18.0314 21.7501 14.8758 21.7501C10.872 21.7501 7.62581 18.5039 7.62581 14.5001C7.62581 10.4963 10.872 7.25008 14.8758 7.25008C16.724 7.25008 18.4054 7.94729 19.6856 9.08614L23.1034 5.66837C20.9453 3.6571 18.0586 2.41675 14.8758 2.41675C8.20279 2.41675 2.79248 7.82706 2.79248 14.5001C2.79248 21.1731 8.20279 26.5834 14.8758 26.5834C21.5488 26.5834 26.9591 21.1731 26.9591 14.5001C26.9591 13.6899 26.8758 12.899 26.7241 12.1336Z" fill="#FFC107"/>
<path d="M4.18555 8.87589L8.15553 11.7874C9.22973 9.12783 11.8313 7.25008 14.8757 7.25008C16.7238 7.25008 18.4052 7.94729 19.6854 9.08614L23.1032 5.66837C20.9451 3.6571 18.0584 2.41675 14.8757 2.41675C10.2345 2.41675 6.20951 5.03702 4.18555 8.87589Z" fill="#FF3D00"/>
<path d="M14.8758 26.5833C17.997 26.5833 20.8329 25.3888 22.9771 23.4464L19.2373 20.2818C17.9834 21.2354 16.4512 21.7512 14.8758 21.7499C11.733 21.7499 9.06436 19.7459 8.05903 16.9492L4.11865 19.9852C6.11844 23.8983 10.1797 26.5833 14.8758 26.5833Z" fill="#4CAF50"/>
<path d="M26.724 12.1334H25.7507V12.0833H14.8757V16.9166H21.7046C21.2281 18.2557 20.3696 19.4258 19.2354 20.2824L19.2372 20.2812L22.977 23.4458C22.7124 23.6863 26.9591 20.5416 26.9591 14.4999C26.9591 13.6897 26.8757 12.8989 26.724 12.1334Z" fill="#1976D2"/>
</svg>
